<svg width="76" height="100" viewBox="0 0 76 100" fill="none" xmlns="http://www.w3.org/2000/svg">
<rect x="1.5" y="22.7" width="73" height="70" rx="16.5" fill="#A27B5C" stroke="#A27B5C" stroke-width="3"/>
<path d="M73.136 46.08L62.064 91.2H46.64L40.432 63.552L34.096 91.2H18.672L7.728 46.08H21.296L26.544 76.928L33.648 46.08H47.408L54.32 76.672L59.568 46.08H73.136Z" fill="#DCD7C9"/>
<path d="M3.048 47.544C3.048 43.1067 3.96533 39.16 5.8 35.704C7.67733 32.2053 10.3227 29.496 13.736 27.576C17.1493 25.6133 21.0747 24.632 25.512 24.632C31.144 24.632 35.88 26.1467 39.72 29.176C43.56 32.1627 46.0347 36.2373 47.144 41.4H33.64C32.8293 39.6933 31.6987 38.392 30.248 37.496C28.84 36.6 27.1973 36.152 25.32 36.152C22.4187 36.152 20.0933 37.1973 18.344 39.288C16.6373 41.336 15.784 44.088 15.784 47.544C15.784 51.0427 16.6373 53.8373 18.344 55.928C20.0933 57.976 22.4187 59 25.32 59C27.1973 59 28.84 58.552 30.248 57.656C31.6987 56.76 32.8293 55.4587 33.64 53.752H47.144C46.0347 58.9147 43.56 63.0107 39.72 66.04C35.88 69.0267 31.144 70.52 25.512 70.52C21.0747 70.52 17.1493 69.56 13.736 67.64C10.3227 65.6773 7.67733 62.968 5.8 59.512C3.96533 56.0133 3.048 52.024 3.048 47.544Z" fill="#DCD7C9"/>
</svg>
