<svg width="36" height="40" viewBox="0 0 36 40" fill="none" xmlns="http://www.w3.org/2000/svg">
<path d="M22.6044 8.38522C22.6044 10.8455 20.5788 12.9046 18 12.9046C15.4213 12.9046 13.3956 10.8455 13.3956 8.38522C13.3956 5.9249 15.4213 3.86588 18 3.86588C20.5788 3.86588 22.6044 5.9249 22.6044 8.38522Z" stroke="#DCD7C9" stroke-width="7.33173"/>
<mask id="path-2-inside-1_2_180" fill="white">
<path fill-rule="evenodd" clip-rule="evenodd" d="M36 37.7372C35.991 26.8431 27.9356 18.0148 18 18.0148C8.0589 18.0148 2.28882e-05 26.853 2.28882e-05 37.7556C2.28882e-05 38.2414 0.0160223 38.723 0.0474746 39.2H35.9526C35.9836 38.7291 35.9996 38.2535 36 37.7739V37.7372Z"/>
</mask>
<path d="M36 37.7372H43.3318L43.3317 37.7311L36 37.7372ZM0.0474746 39.2L-7.26837 39.6824L-6.81673 46.5318H0.0474746V39.2ZM35.9526 39.2V46.5318H42.8168L43.2684 39.6824L35.9526 39.2ZM36 37.7739L43.3317 37.78V37.7739H36ZM43.3317 37.7311C43.3199 23.4414 32.6043 10.683 18 10.683V25.3465C23.2668 25.3465 28.6621 30.2448 28.6683 37.7433L43.3317 37.7311ZM18 10.683C3.38738 10.683 -7.33171 23.4555 -7.33171 37.7556H7.33176C7.33176 30.2506 12.7304 25.3465 18 25.3465V10.683ZM-7.33171 37.7556C-7.33171 38.4024 -7.31041 39.0449 -7.26837 39.6824L7.36332 38.7176C7.34245 38.4011 7.33176 38.0803 7.33176 37.7556H-7.33171ZM0.0474746 46.5318H35.9526V31.8683H0.0474746V46.5318ZM43.2684 39.6824C43.3099 39.053 43.3312 38.4186 43.3317 37.78L28.6683 37.7679C28.668 38.0884 28.6573 38.4051 28.6367 38.7176L43.2684 39.6824ZM43.3317 37.7739V37.7372H28.6683V37.7739H43.3317Z" fill="#DCD7C9" mask="url(#path-2-inside-1_2_180)"/>
</svg>
